<svg width="386" height="157" viewBox="0 0 386 157" fill="none" xmlns="http://www.w3.org/2000/svg">
<path d="M337.554 60.4009H274.439V68.0216H283.132C284.263 66.2575 286.03 64.9874 288.08 64.4935C290.2 63.9996 292.462 64.3524 294.299 65.4814C295.359 66.1164 296.278 67.0337 296.985 68.0921H337.554C359.958 68.0921 378.263 86.2971 378.263 108.736C378.263 131.104 360.029 149.379 337.554 149.379H214.363V157H337.554C364.199 157 385.826 135.338 385.826 108.736C385.897 81.9928 364.199 60.4009 337.554 60.4009Z" fill="#E96924"/>
<path d="M207.932 10.5841H42.6182C19.1535 10.5841 0 29.6358 0 53.1329C0 76.5594 19.0828 95.6817 42.6182 95.6817H205.175V88.061H42.6182C23.3234 88.061 7.63312 72.3963 7.63312 53.1329C7.63312 33.8695 23.3234 18.2048 42.6182 18.2048H93.1523C93.1523 18.1342 93.1523 18.0637 93.223 17.9225C93.8591 15.6646 96.1914 14.3239 98.5237 14.9589C100.149 15.3823 101.28 16.723 101.563 18.2048H206.023C206.094 15.3117 206.73 12.7715 207.932 10.5841Z" fill="#E96924"/>
<path d="M144.817 27.4495H137.114H127.219C126.017 27.4495 125.381 28.0845 125.381 29.2841V36.9753L126.936 37.2576L132.378 55.4625L130.329 57.2971C128.986 58.4967 127.572 59.6257 126.017 60.8252C125.876 61.672 125.664 62.4482 125.381 63.2243V76.7722C125.381 77.9718 126.017 78.6068 127.219 78.6068H135.276C136.477 78.6068 137.114 77.9718 137.114 76.7722V62.5187H144.817C154.924 62.5187 162.769 54.6863 162.769 44.9488C162.769 35.2818 154.924 27.4495 144.817 27.4495ZM144.817 51.5816H137.114V38.3866H144.817C148.422 38.3866 151.037 41.209 151.037 44.9488C151.037 48.6886 148.422 51.5816 144.817 51.5816Z" fill="white"/>
<path d="M203.267 29.6365L188.072 56.1677V76.7013C188.072 77.9008 187.436 78.5359 186.234 78.5359H178.177C176.976 78.5359 176.34 77.9008 176.34 76.7013V56.2383L161.073 29.6365C160.367 28.2958 160.932 27.4491 162.345 27.4491H171.675C172.735 27.4491 173.371 27.8724 173.795 28.7897L182.135 44.7367L190.475 28.7897C190.899 27.943 191.606 27.4491 192.595 27.4491H201.995C203.409 27.4491 203.974 28.2958 203.267 29.6365Z" fill="white"/>
<path d="M64.952 59.6242H57.8136C56.8242 59.6242 56.1881 60.1182 55.764 61.106C53.7144 65.5514 48.979 68.2328 43.3955 68.2328C34.3489 68.2328 28.4827 62.1645 28.4827 53.062C28.4827 43.9595 34.3489 37.8912 43.3955 37.8912C48.979 37.8912 53.7144 40.5725 55.764 45.0179C56.1881 45.9352 56.7535 46.4997 57.8136 46.4997H66.4362C67.7084 46.4997 68.3445 45.7236 68.0618 44.4534C65.0934 33.7986 55.1279 26.4602 43.3955 26.4602C27.9173 26.4602 16.7503 38.0323 16.7503 53.062C16.7503 68.0917 27.9173 79.6638 43.3955 79.6638C53.7144 79.6638 62.6197 73.9483 66.6483 65.4103L64.952 59.6242Z" fill="white"/>
<path d="M251.893 116.99C250.267 115.649 248.783 114.309 247.37 112.968L245.249 110.851L249.985 95.0452C247.37 90.5998 242.281 87.7068 236.061 87.7068H226.167H216.272C215.07 87.7068 214.434 88.3418 214.434 89.5414V137.171C214.434 138.37 215.07 139.005 216.272 139.005H217.403H242.281C248.995 139.005 254.508 135.407 256.982 129.903C254.367 126.022 252.67 121.647 251.893 116.99ZM226.096 98.7144H235.991C238.394 98.7144 240.019 100.337 240.019 102.736C240.019 103.936 239.524 105.136 238.535 106.053H226.096V98.7144ZM240.726 127.998H226.096V116.284H240.797C244.967 116.284 246.663 118.825 246.663 122.141C246.663 125.457 244.967 127.998 240.726 127.998Z" fill="white"/>
<path d="M313.311 113.392C313.099 117.908 311.827 122.424 309.353 126.587C309 127.222 308.647 127.787 308.223 128.351C309.283 128.281 310.343 128.14 311.403 127.999L315.22 115.086C314.584 114.521 313.947 113.957 313.311 113.392Z" fill="#E96924"/>
<path d="M252.458 109.018C253.165 109.723 253.872 110.358 254.649 110.993C254.791 106.266 256.063 101.538 258.607 97.1633C258.748 96.8811 258.89 96.6694 259.031 96.4577C258.042 96.5283 257.052 96.6694 256.063 96.8105L252.458 109.018Z" fill="#E96924"/>
<path d="M270.41 118.896L272.955 110.5L269.916 109.582L267.513 117.344C267.654 117.415 267.795 117.485 267.937 117.556C268.785 118.05 269.562 118.473 270.41 118.896Z" fill="#16AD4B"/>
<path d="M274.439 120.73L276.418 114.309L273.379 113.392L271.541 119.46C271.965 119.672 272.389 119.883 272.884 120.095C273.379 120.307 273.944 120.518 274.439 120.73Z" fill="#16AD4B"/>
<path d="M277.902 122.071C278.114 122.141 278.397 122.212 278.609 122.282L282.567 109.369L279.528 108.452L275.641 121.224C275.923 121.294 276.136 121.435 276.418 121.506C276.913 121.718 277.408 121.859 277.902 122.071Z" fill="#16AD4B"/>
<path d="M282.85 123.554L288.787 104.29L285.747 103.373L279.811 122.707C280.376 122.918 280.941 123.06 281.578 123.201C282.002 123.342 282.426 123.483 282.85 123.554Z" fill="#16AD4B"/>
<path d="M286.807 124.47C286.949 124.47 287.019 124.541 287.161 124.541L292.32 107.818L289.281 106.901L284.051 123.906C284.475 124.047 284.899 124.118 285.394 124.188C285.889 124.259 286.383 124.4 286.807 124.47Z" fill="#16AD4B"/>
<path d="M297.833 104.926L294.794 104.008L288.433 124.824C289.493 124.965 290.553 125.177 291.614 125.248L297.833 104.926Z" fill="#16AD4B"/>
<path d="M343.561 87.7074H333.666H312.039C310.838 87.7074 310.201 88.3424 310.201 89.542V92.0116C311.827 94.1285 313.241 96.5276 314.301 98.9973H322.005V112.263L322.923 113.11L322.005 116.073V137.171C322.005 138.371 322.641 139.006 323.842 139.006H331.899C333.101 139.006 333.737 138.371 333.737 137.171V98.9973H343.632C344.833 98.9973 345.469 98.3622 345.469 97.1627V89.542C345.399 88.3424 344.692 87.7074 343.561 87.7074Z" fill="white"/>
<path d="M222.562 50.3106C222.562 48.1232 223.127 46.2886 224.187 44.7362C225.247 43.1839 226.732 42.0549 228.569 41.2787C230.407 40.5025 232.244 39.938 234.153 39.5852C236.061 39.2324 238.04 39.0913 240.231 39.0913C243.553 39.0913 246.662 38.7385 249.56 38.1034C252.458 37.3978 255.144 36.3394 257.617 34.8576C260.091 33.3758 262.07 31.3295 263.554 28.7187C265.038 26.1079 265.745 23.0032 265.745 19.5456C265.745 16.7937 265.251 14.2535 264.261 11.9955C263.272 9.73754 261.999 7.83237 260.374 6.42113C258.748 4.93933 256.84 3.73978 254.649 2.75191C252.458 1.76405 250.196 1.05843 247.864 0.635057C245.532 0.211686 243.129 0 240.584 0C237.404 0 234.435 0.282247 231.679 0.917304C228.852 1.55236 226.166 2.54023 223.622 3.8809C221.077 5.22158 219.028 7.19731 217.402 9.66697C215.918 12.0661 215.07 14.9591 214.928 18.205H223.056C223.127 15.5942 224.117 13.4773 225.883 11.7133C227.792 9.87866 229.983 8.60855 232.527 7.90293C235.001 7.19731 237.757 6.91506 240.655 6.91506C245.461 6.91506 249.49 7.97349 252.811 10.0198C256.062 12.0661 257.688 15.3119 257.688 19.6868C257.688 22.5798 256.699 24.9789 254.649 26.8841C252.599 28.7892 250.338 30.0594 247.864 30.6944C245.39 31.3295 242.846 31.6823 240.16 31.6823C236.838 31.6823 233.729 31.9645 230.901 32.5996C228.074 33.2346 225.389 34.2225 222.774 35.5632C220.229 36.9039 218.18 38.8796 216.695 41.4198C215.211 43.96 214.504 46.9236 214.504 50.3812V68.0216H265.392V60.4009H222.562V50.3106Z" fill="white"/>
<path d="M318.117 113.534C316.562 112.053 314.937 110.641 313.24 109.301C312.463 100.833 308.081 92.8598 300.66 87.7793L304.688 82.2049C306.173 82.4872 307.727 82.2049 308.929 81.0759C310.979 79.3119 311.12 76.2072 309.353 74.2314C307.586 72.1851 304.476 72.044 302.497 73.808C300.66 75.431 300.377 78.1123 301.649 80.0881L297.479 85.8036C295.712 84.8863 293.804 84.1806 291.896 83.6161L291.754 76.9833C293.945 76.066 295.218 73.7375 294.652 71.3384C294.016 68.7276 291.401 67.1047 288.786 67.7397C286.171 68.3748 284.545 70.9856 285.182 73.5964C285.535 75.1487 286.666 76.3483 288.079 76.9128L288.221 82.7694C278.326 81.3582 268.148 85.0979 261.575 92.9303C259.243 93.0714 256.981 93.3537 254.649 93.7065L253.66 93.8476L248.924 109.865L249.631 110.5C251.327 112.123 253.094 113.676 254.932 115.157C255.992 123.978 261.01 132.233 269.35 137.102C281.506 144.158 296.561 141.547 305.678 131.669C308.081 131.528 310.555 131.316 312.958 130.963L313.947 130.822L318.894 114.099L318.117 113.534ZM307.233 104.926C299.67 99.9865 291.189 96.4584 282.284 94.5532C277.76 93.5654 273.166 93.0009 268.572 92.8598M268.572 92.8598C274.651 87.991 282.991 86.1564 290.977 88.5555C299.105 91.0251 304.971 97.3757 307.233 104.926M258.607 97.0935C256.063 101.468 254.79 106.196 254.649 110.924C253.942 110.289 253.165 109.653 252.458 108.948L256.133 96.6701C257.123 96.529 258.112 96.3878 259.102 96.3173C258.89 96.5995 258.748 96.8818 258.607 97.0935ZM276.7 135.267C268.784 132.868 263.06 126.8 260.657 119.462C262.211 120.52 263.837 121.508 265.533 122.425C265.675 122.496 265.816 122.566 266.028 122.707C266.24 122.778 266.381 122.919 266.593 122.99C267.3 123.413 268.078 123.766 268.784 124.119C269.209 124.33 269.633 124.542 270.127 124.754C271.187 125.248 272.318 125.742 273.378 126.165C273.803 126.377 274.297 126.518 274.721 126.729C275.852 127.153 276.912 127.576 278.043 127.929C278.467 128.07 278.962 128.211 279.386 128.352C279.527 128.423 279.739 128.493 279.881 128.493C280.87 128.776 281.789 129.058 282.779 129.34C283.273 129.481 283.697 129.552 284.192 129.693C284.757 129.834 285.323 129.975 285.959 130.116C286.524 130.258 287.09 130.328 287.726 130.469C288.221 130.54 288.645 130.681 289.139 130.751C290.341 130.963 291.542 131.104 292.673 131.245C294.511 131.457 296.348 131.669 298.186 131.739C292.108 136.044 284.263 137.596 276.7 135.267ZM301.649 128.705C298.964 128.705 296.278 128.564 293.592 128.211C292.391 128.07 291.189 127.929 290.058 127.717C289.563 127.647 289.069 127.576 288.645 127.435C288.503 127.435 288.362 127.365 288.221 127.365C287.726 127.294 287.16 127.153 286.666 127.012C286.171 126.871 285.676 126.8 285.182 126.659C284.828 126.588 284.404 126.447 284.051 126.377C283.98 126.377 283.909 126.306 283.839 126.306C283.344 126.165 282.849 126.024 282.354 125.883C281.718 125.671 281.012 125.53 280.375 125.318C279.881 125.177 279.457 125.036 279.033 124.895C278.75 124.824 278.467 124.754 278.255 124.613C277.69 124.401 277.124 124.189 276.63 124.048C276.347 123.907 276.064 123.836 275.711 123.695C275.287 123.554 274.792 123.342 274.368 123.131C273.732 122.849 273.166 122.637 272.601 122.355C272.106 122.143 271.612 121.931 271.117 121.649C271.046 121.649 271.046 121.578 270.975 121.578C270.551 121.367 270.198 121.155 269.774 121.014C268.855 120.52 267.936 120.097 267.018 119.603C266.876 119.532 266.735 119.391 266.593 119.32C264.261 117.98 261.929 116.498 259.738 114.946C259.314 111.629 259.596 108.172 260.586 104.785C261.575 101.468 263.272 98.5047 265.463 96.035C270.905 95.9645 276.347 96.529 281.789 97.658C291.401 99.7748 300.377 103.726 308.293 109.371C308.646 112.547 308.364 115.863 307.374 119.038C306.102 122.778 304.123 126.024 301.649 128.705ZM311.403 128.07C310.343 128.211 309.282 128.352 308.222 128.423C308.646 127.858 309 127.294 309.353 126.659C311.756 122.496 313.028 117.98 313.311 113.464C313.947 114.028 314.583 114.593 315.219 115.157L311.403 128.07Z" fill="white"/>
<path d="M120.221 41.9855C122.2 45.443 123.472 49.3945 123.684 53.6282C123.684 54.2632 123.684 54.8983 123.684 55.4628C124.391 54.8983 125.169 54.3338 125.875 53.6987L122.483 42.3383C121.706 42.1972 120.999 42.056 120.221 41.9855Z" fill="#E96924"/>
<path d="M73.2207 67.951C74.0688 68.0921 74.9169 68.2333 75.765 68.3744C73.5741 64.8463 72.2312 60.6832 72.0192 56.2378C72.0192 55.9555 72.0192 55.7438 72.0192 55.4616C71.3124 56.0261 70.6763 56.5906 69.9695 57.1551L73.2207 67.951Z" fill="#E96924"/>
<path d="M91.1728 66.6102L89.0525 59.2012L86.3668 59.9774L88.3457 66.8925C88.4871 66.8925 88.6284 66.8925 88.7698 66.8925C89.6179 66.7514 90.3953 66.6808 91.1728 66.6102Z" fill="#16AD4B"/>
<path d="M95.06 66.047L93.4345 60.3315L90.7487 61.1077L92.3036 66.4704C92.7277 66.3998 93.1518 66.3293 93.5758 66.2587C94.0706 66.1881 94.5653 66.1176 95.06 66.047Z" fill="#16AD4B"/>
<path d="M98.2401 65.3403C98.4522 65.2698 98.6642 65.1992 98.8762 65.1992L95.5544 53.7682L92.8687 54.5444L96.1198 65.8343C96.3319 65.7637 96.6146 65.7637 96.8266 65.6931C97.392 65.552 97.8161 65.4814 98.2401 65.3403Z" fill="#16AD4B"/>
<path d="M102.622 64.0696L97.6749 46.9936L94.9892 47.7698L99.9366 64.8458C100.431 64.7046 100.926 64.5635 101.491 64.4224C101.916 64.3518 102.269 64.2107 102.622 64.0696Z" fill="#16AD4B"/>
<path d="M106.015 62.8716C106.086 62.8011 106.227 62.8011 106.298 62.7305L102.057 47.9125L99.3715 48.6887L103.683 63.7184C104.036 63.5772 104.46 63.4361 104.814 63.295C105.238 63.1539 105.662 63.0127 106.015 62.8716Z" fill="#16AD4B"/>
<path d="M104.743 43.1126L102.057 43.8887L107.358 62.3054C108.206 61.9526 109.054 61.5292 109.902 61.1058L104.743 43.1126Z" fill="#16AD4B"/>
<path d="M123.826 39.7266C121.918 39.3738 120.08 39.1621 118.172 38.9505C113.507 33.0938 106.44 29.2835 98.5239 29.1424L98.8066 23.074C100.008 22.5801 101.068 21.5922 101.422 20.2516C102.058 17.9936 100.715 15.5945 98.4532 14.9594C96.1916 14.3244 93.7886 15.665 93.1525 17.923C92.5871 19.9693 93.6472 22.1567 95.5555 23.0035L95.2021 29.2129C93.4352 29.4246 91.7389 29.7774 90.0427 30.2713L86.7209 25.4026C87.9224 23.7091 87.7103 21.31 86.1555 19.8282C84.4592 18.2053 81.7028 18.2758 80.0772 20.0399C78.4517 21.7334 78.5223 24.4853 80.2893 26.1082C81.3494 27.0961 82.6923 27.4489 84.0351 27.1666L86.9329 31.4709C78.9464 35.1401 73.2216 42.8314 72.1614 51.7927C70.5358 52.9923 68.9809 54.3329 67.426 55.6736L66.79 56.2381L70.9599 70.3505L71.808 70.4916C73.8577 70.915 75.9073 71.1972 77.9569 71.4089C82.975 77.4067 90.6788 81.1465 99.16 80.7231C111.528 80.088 121.423 70.915 123.402 59.2723C125.169 58.0022 126.795 56.6615 128.42 55.2502L129.056 54.6858L124.674 39.9383L123.826 39.7266ZM111.741 38.5976C103.754 38.5976 95.8382 40.0794 88.3464 42.9019C84.5299 44.3837 80.8547 46.1478 77.3915 48.2646M77.3915 48.2646C79.5825 41.7729 84.8126 36.4102 91.8803 34.3639C99.0187 32.3176 106.44 34.1523 111.741 38.5976M72.0201 56.1675C72.2321 60.6129 73.575 64.7761 75.7659 68.3042C74.9178 68.1631 74.0697 68.0219 73.2216 67.8808L70.0411 57.0849C70.6772 56.5204 71.384 55.9559 72.0907 55.3914C72.0201 55.6736 72.0201 55.9559 72.0201 56.1675ZM103.754 75.7132C96.757 77.6889 89.548 75.9954 84.3179 71.7617C86.0141 71.7617 87.6397 71.6912 89.3359 71.6206C89.4773 71.6206 89.6186 71.6206 89.8307 71.6206C90.0427 71.6206 90.184 71.6206 90.3961 71.55C91.1028 71.4795 91.8096 71.4089 92.5871 71.3383C93.0111 71.2678 93.4352 71.2678 93.8592 71.1972C94.9194 71.0561 95.9089 70.915 96.969 70.7033C97.3931 70.6327 97.8172 70.5622 98.2412 70.4916C99.2307 70.2799 100.291 70.0682 101.28 69.786C101.704 69.6449 102.128 69.5743 102.482 69.4332C102.623 69.3626 102.765 69.3626 102.906 69.2921C103.754 69.0804 104.602 68.7981 105.45 68.5159C105.874 68.3747 106.228 68.2336 106.652 68.0925C107.147 67.9514 107.641 67.7397 108.136 67.528C108.631 67.3163 109.125 67.1752 109.55 66.9635C109.974 66.8224 110.327 66.6107 110.751 66.4696C111.741 66.0462 112.659 65.6228 113.649 65.1289C115.133 64.4233 116.547 63.6471 117.96 62.8709C115.486 68.7981 110.468 73.7375 103.754 75.7132ZM118.95 58.8489C116.971 60.119 114.921 61.3186 112.73 62.377C111.811 62.8709 110.822 63.2943 109.832 63.7177C109.408 63.8588 109.055 64.0705 108.631 64.2116C108.489 64.2822 108.419 64.2822 108.277 64.3527C107.853 64.5644 107.429 64.7055 106.934 64.8467C106.51 64.9878 106.086 65.1289 105.662 65.3406C105.309 65.4817 105.026 65.5523 104.673 65.6934C104.602 65.6934 104.531 65.764 104.461 65.764C104.037 65.9051 103.613 66.0462 103.189 66.1873C102.623 66.399 102.058 66.5401 101.492 66.6813C101.068 66.8224 100.644 66.893 100.291 67.0341C100.079 67.1046 99.7961 67.1752 99.5841 67.2458C99.0893 67.3869 98.5946 67.4574 98.0999 67.5986C97.8172 67.6691 97.5344 67.7397 97.2517 67.7397C96.8277 67.8103 96.4036 67.8808 95.9796 68.0219C95.4141 68.0925 94.8487 68.2336 94.2833 68.3042C93.7886 68.3748 93.3645 68.4453 92.8698 68.5159C92.7991 68.5159 92.7991 68.5159 92.7284 68.5159C92.375 68.5864 91.951 68.5864 91.5976 68.657C90.6788 68.7276 89.76 68.8687 88.9119 68.9392C88.7705 68.9392 88.6291 68.9392 88.4171 68.9392C86.0141 69.0804 83.6111 69.0804 81.2787 69.0098C79.3705 66.7518 77.8862 64.0705 77.0381 61.1069C76.19 58.1433 75.978 55.1797 76.402 52.2866C80.3599 49.6053 84.6712 47.4179 89.2652 45.6538C97.3224 42.5491 105.945 41.2084 114.497 41.5612C116.264 43.7487 117.677 46.2889 118.455 49.1819C119.444 52.3572 119.586 55.6736 118.95 58.8489ZM125.876 53.6979C125.169 54.3329 124.462 54.8974 123.685 55.4619C123.685 54.8269 123.685 54.2624 123.685 53.6273C123.473 49.3936 122.271 45.4421 120.222 41.9846C120.999 42.0552 121.706 42.1963 122.483 42.3374L125.876 53.6979Z" fill="white"/>
</svg>
